<?xml version="1.0" encoding="utf-8"?>
<!-- Generator: Adobe Illustrator 24.1.2, SVG Export Plug-In . SVG Version: 6.00 Build 0)  -->
<svg version="1.1" id="Layer_1" xmlns="http://www.w3.org/2000/svg" xmlns:xlink="http://www.w3.org/1999/xlink" x="0px" y="0px"
	 viewBox="0 0 206.2 83" style="enable-background:new 0 0 206.2 83;" xml:space="preserve">
<style type="text/css">
	.st0{fill:#212A5D;}
	.st1{fill:#CFA86F;}
</style>
<path class="st0" d="M185.3,71.8V58.3c0-0.3-0.1-0.6-0.4-0.8l-17.2-14.8c-0.4-0.3-1-0.3-1.4,0l-17.2,14.8c-0.2,0.2-0.4,0.5-0.4,0.8
	v13.5c0,0.4,0.2,0.8,0.6,1c0.4,0.2,0.8,0.1,1.1-0.2l13.7-11.7c0.4-0.4,0.5-1,0.1-1.5c-0.4-0.4-1.1-0.5-1.5-0.1l-11.8,10.2V58.8
	L167,44.9l16.1,13.9v13c0,0.6,0.5,1.1,1.1,1.1C184.8,72.8,185.3,72.3,185.3,71.8z"/>
<polygon class="st1" points="167,43 184.2,57.8 184.2,71.3 167,56.5 167,56.5 159.2,49.8 "/>
<path class="st0" d="M184.7,72.7c-0.4,0.2-0.8,0.1-1.1-0.2l-17.2-14.7c0,0-0.1,0-0.1-0.1l-7.8-6.7c-0.2-0.2-0.4-0.5-0.4-0.8l0,0
	c0-0.3,0.1-0.6,0.4-0.8l7.8-6.8c0.4-0.3,1-0.3,1.4,0l17.2,14.8c0.2,0.2,0.4,0.5,0.4,0.8v13.5C185.3,72.2,185,72.5,184.7,72.7z
	 M167,44.8l-6.2,5.4l6.8,5.9c0,0,0.1,0,0.1,0.1l15.4,13.3V58.8L167,44.8z"/>
<path class="st0" d="M148.8,11.1v13.5c0,0.3,0.1,0.6,0.4,0.8l17.2,14.8c0.4,0.3,1,0.3,1.4,0L185,25.4c0.2-0.2,0.4-0.5,0.4-0.8V11.1
	c0-0.4-0.2-0.8-0.6-1s-0.8-0.1-1.1,0.2L170.1,22c-0.4,0.4-0.5,1.1-0.1,1.5s1,0.5,1.5,0.1l11.8-10.2v10.7L167.2,38l-16.1-13.9v-13
	c0-0.6-0.5-1.1-1.1-1.1C149.3,10,148.8,10.5,148.8,11.1z"/>
<polygon class="st1" points="167,39.4 149.8,24.6 149.8,11.1 167,25.9 167,25.9 174.8,32.7 "/>
<path class="st0" d="M149.4,10.1c0.4-0.2,0.8-0.1,1.1,0.2l17.1,14.8c0,0,0.1,0,0.1,0.1l7.8,6.7c0.2,0.2,0.4,0.5,0.4,0.8l0,0
	c0,0.3-0.1,0.6-0.4,0.8l-7.8,6.8c-0.4,0.3-1,0.3-1.4,0l-17.2-14.8c-0.2-0.2-0.4-0.5-0.4-0.8V11.2C148.8,10.7,149,10.3,149.4,10.1z
	 M167,38l6.2-5.4l-6.8-5.9c0,0-0.1,0-0.1-0.1l-15.4-13.3V24L167,38z"/>
<path class="st0" d="M202.9,23h-13.5c-0.3,0-0.6,0.1-0.8,0.4l-14.8,17.2c-0.3,0.4-0.3,1,0,1.4l14.8,17.2c0.2,0.2,0.5,0.4,0.8,0.4
	h13.5c0.4,0,0.8-0.2,1-0.6s0.1-0.8-0.2-1.1L192,44.3c-0.4-0.4-1-0.5-1.5-0.1c-0.4,0.4-0.5,1.1-0.1,1.5l10.2,11.8h-10.7L176,41.4
	l13.9-16.1h13c0.6,0,1.1-0.5,1.1-1.1C204,23.5,203.5,23,202.9,23z"/>
<polygon class="st1" points="174.6,41.3 189.4,24.1 202.9,24.1 188.1,41.3 188.1,41.3 181.4,49.1 "/>
<path class="st0" d="M203.9,23.7c0.2,0.4,0.1,0.8-0.2,1.1l-14.8,17.1c0,0,0,0.1-0.1,0.1l-6.7,7.8c-0.2,0.2-0.5,0.4-0.8,0.4l0,0
	c-0.3,0-0.6-0.1-0.8-0.4l-6.8-7.8c-0.3-0.4-0.3-1,0-1.4l14.8-17.2c0.2-0.2,0.5-0.4,0.8-0.4h13.5C203.3,23,203.7,23.3,203.9,23.7z
	 M176,41.3l5.4,6.2l5.9-6.8c0,0,0-0.1,0.1-0.1l13.3-15.4H190L176,41.3z"/>
<g>
	<path class="st0" d="M3.2,46.8v-2.3c0-2.7,0-5.7,4.9-5.7H11v8H3.2z M6.7,36.6C6.4,37,6,37.2,5.4,37.2c-0.9,0-1.6-0.7-1.6-1.6
		c0-0.9,0.7-1.6,1.6-1.6c0.5,0,1,0.2,1.3,0.6V36.6z M8.1,41.1c-2,0-2,0.7-2,3.4h2V41.1z M7.4,34.7c0.3-0.4,0.7-0.6,1.3-0.6
		c0.9,0,1.6,0.7,1.6,1.6c0,0.9-0.7,1.6-1.6,1.6c-0.5,0-1-0.3-1.3-0.6V34.7z"/>
	<path class="st0" d="M22.3,44.4c0,1.4-1,2.4-2.6,2.4h-9v-2.3h3.9c0-2.4,0-5.7,4.9-5.7h2.9v5.6H22.3z M20,35.7
		c0,0.9-0.7,1.6-1.6,1.6s-1.6-0.7-1.6-1.6c0-0.9,0.7-1.6,1.6-1.6C19.2,34.1,20,34.8,20,35.7z M19.4,41.1c-2,0-2,1-2,3.4h2V41.1z"/>
	<path class="st0" d="M26.7,46.8c0,1.1,0,3.9-5.2,3.9l-0.8-2.3c3.1,0,3.1-0.5,3.1-1.6V40h2.9V46.8z"/>
	<path class="st0" d="M37.9,41.1c-4.7,0-4.7,2.5-4.7,3.3h4.7v2.3H26.4v-2.3h3.9c0-0.8,0-5.7,6.8-5.7L37.9,41.1z M36.3,35.7
		c0,0.9-0.7,1.6-1.6,1.6s-1.6-0.7-1.6-1.6c0-0.9,0.7-1.6,1.6-1.6C35.6,34.1,36.3,34.8,36.3,35.7z"/>
	<path class="st0" d="M37.5,46.8v-2.3h3.9v-8.7h2.8v11H37.5z"/>
	<path class="st0" d="M45.9,46.8v-11h2.8v11H45.9z"/>
	<path class="st0" d="M59.8,41.1c-3.1,0-3.1,1.9-3.1,3.3h9.4V40H69v4.4c0,1.4-1,2.4-2.7,2.4H53.8v-2.3c0-1.4,0-5.6,5.2-5.6
		L59.8,41.1z M64,37.8c-0.3,0.4-0.7,0.6-1.3,0.6c-0.9,0-1.6-0.7-1.6-1.6c0-0.9,0.7-1.6,1.6-1.6c0.5,0,1,0.2,1.3,0.6V37.8z
		 M64.8,35.9c0.3-0.4,0.7-0.6,1.3-0.6c0.9,0,1.6,0.7,1.6,1.6c0,0.9-0.7,1.6-1.6,1.6c-0.5,0-1-0.3-1.3-0.6V35.9z"/>
	<path class="st0" d="M70.5,46.8v-11h2.8v11H70.5z"/>
	<path class="st0" d="M79.8,38.8c4.9,0,4.9,3,4.9,5.7v2.3H73v-2.3h3.9v-5.7H79.8z M81.8,44.5c0-2.7,0-3.4-2-3.4v3.4H81.8z"/>
	<path class="st0" d="M87.8,38.8c6,0,6,4.8,6,5.7v2.3h-7.6v-2.3h4.7c0-0.8,0-3.3-3.1-3.3L87.8,38.8L87.8,38.8z"/>
	<path class="st0" d="M97.4,38.8c7.6,0,7.6,4.8,7.6,5.7v2.3H93.5v-2.3h8.6c0-0.8,0-3.3-4.7-3.3L97.4,38.8L97.4,38.8z M101.3,35.7
		c0,0.9-0.7,1.6-1.6,1.6s-1.6-0.7-1.6-1.6c0-0.9,0.7-1.6,1.6-1.6S101.3,34.8,101.3,35.7z"/>
	<path class="st0" d="M110.1,46.8v-2.3c0-2.7,0-5.7,4.9-5.7h2.9v8H110.1z M113.6,36.6c-0.3,0.4-0.7,0.6-1.3,0.6
		c-0.9,0-1.6-0.7-1.6-1.6c0-0.9,0.7-1.6,1.6-1.6c0.5,0,1,0.2,1.3,0.6V36.6z M115,41.1c-2,0-2,0.7-2,3.4h2V41.1z M114.3,34.7
		c0.3-0.4,0.7-0.6,1.3-0.6c0.9,0,1.6,0.7,1.6,1.6c0,0.9-0.7,1.6-1.6,1.6c-0.5,0-1-0.3-1.3-0.6V34.7z"/>
	<path class="st0" d="M117.5,46.8v-2.3h3.9V40h2.8v6.7L117.5,46.8L117.5,46.8z M124.4,49.9c0,0.9-0.7,1.6-1.6,1.6
		c-0.9,0-1.6-0.7-1.6-1.6c0-0.9,0.7-1.6,1.6-1.6C123.7,48.3,124.4,49,124.4,49.9z"/>
	<path class="st0" d="M125.8,46.8v-11h2.8v11H125.8z"/>
	<path class="st0" d="M138,46.8c0,1.1,0,3.9-5.2,3.9l-0.8-2.3c3.1,0,3.1-0.5,3.1-1.6h-4.9v-2.3c0-2.7,0-5.7,4.9-5.7h2.9V46.8z
		 M135.1,41.1c-2,0-2,0.7-2,3.4h2V41.1z"/>
	<path class="st0" d="M137.7,46.8v-2.3h3.9V40h2.8v6.7L137.7,46.8L137.7,46.8z M144.6,49.9c0,0.9-0.7,1.6-1.6,1.6
		c-0.9,0-1.6-0.7-1.6-1.6c0-0.9,0.7-1.6,1.6-1.6C143.9,48.3,144.6,49,144.6,49.9z"/>
</g>
</svg>
