<svg xmlns="http://www.w3.org/2000/svg" width="115" height="62" viewBox="0 0 115 62"><g transform="translate(0 0)"><path d="M81.977,47.043c0,6.052-4.055,10.419-10.6,10.419A13.709,13.709,0,0,1,59.9,51.972l4.4-4.555c2.028,2.433,4.113,3.806,7.126,3.806,2.433,0,4.171-1.5,4.171-3.868-.058-.062.463-4.118-5.793-4.118H67.088l-.985-4.43,9.443-10.232L71.781,31.2h-10.2v-5.99H81.514v5.241L74.04,38.121c4,.749,7.937,2.995,7.937,8.922M63.5,10.794c0-2.87,1.912-5.179,4.577-5.179h3.013l-.811.437c.058,7.861-.116,8.86.348,9.983H68.073c-2.665,0-4.577-2.371-4.577-5.241Zm4.577,6.551h2.665V16.284a2.031,2.031,0,0,0,.869.873c.869.437.232.187,24.738.25V4.305H95.071v11.73S72.65,16.1,72.244,15.91a1.122,1.122,0,0,1-.579-1c-.116-.686-.058-.749-.058-10.607H68.131a6.189,6.189,0,0,0-6.025,6.364v.25a6.1,6.1,0,0,0,5.736,6.426h.232M105.846,2.87h-2.839c.116-1-.348-2.87,1.564-2.87h.927V1c-.869.062-1.39-.25-1.39.5v.312h1.8V2.87h-.058Zm3.3,14.662a3.069,3.069,0,0,1-1.043-.187l.348-1.31c.579.187,1.332.187,1.622-.374.348-.686.232-.873.232-11.355h1.275c-.058,9.8.116,10.045-.116,11.168a2.185,2.185,0,0,1-2.317,2.059M71.607,2.87H70.332V1.5h1.275V2.87Zm28.446,4.8a3.571,3.571,0,0,1,3.186-2h2.086l-.753.374v6.239a9.3,9.3,0,0,1-2.665-.187,3.12,3.12,0,0,1-2.144-3.057,2.782,2.782,0,0,1,.29-1.373m0,4.929a7.037,7.037,0,0,0,4.113,1.123l.463-1c-.058.936.232,2.308-.579,2.932a3.466,3.466,0,0,1-2.723.374,5.9,5.9,0,0,1-1.1-.437l-.406,1.31a6.915,6.915,0,0,0,2.491.562,3.414,3.414,0,0,0,2.723-.936,3.579,3.579,0,0,0,.869-2.62V4.305c-1.564.062-2.781-.187-4.229.374a4.645,4.645,0,0,0-1.622,7.924M69,2.87H67.725V1.5H69V2.87ZM55.617,4.243H56.95v13.04h-1.1L47.275,5.553l.753,1.872v9.858H46.7V4.243H47.97L56.2,15.473l-.579-1.622V4.243ZM5.214,17.407,0,4.243H1.506c.058.187,4.229,11.043,4.635,12.1l-.116-1.373L10.139,4.305h1.448L6.373,17.47A7.216,7.216,0,0,0,5.214,17.407ZM28.33,4.243h1.39v13.04H28.33Zm14.715,6.551c0,2.995-1.97,5.366-4.751,5.366a5.048,5.048,0,0,1-4.809-5.241v-.187c0-2.932,1.97-5.366,4.751-5.366a5.086,5.086,0,0,1,4.809,5.366v.062ZM38.295,4.055a6.365,6.365,0,0,0-6.2,6.489v.312a6.458,6.458,0,0,0,6.2,6.676,6.458,6.458,0,0,0,6.2-6.676v-.062c-.058-3.619-2.491-6.738-6.2-6.738M26.071,13.789c0,2.246-1.738,3.744-4.171,3.744a7.24,7.24,0,0,1-4.982-2.059l.869-1.061a5.719,5.719,0,0,0,4.171,1.872c1.622,0,2.723-.936,2.723-2.246v-.062c0-3.619-7.242-1.248-7.242-6.239V7.674c0-2.059,1.68-3.556,4-3.556A6.188,6.188,0,0,1,25.723,5.74L24.912,6.8c-2.723-2.371-6.083-1.5-6.083.686v.062c0,1.248.637,1.934,3.3,2.558s3.94,1.685,3.94,3.681M14.889,17.283H13.5V4.243h1.39Zm79.718,1.5h1.275v1.373H94.607ZM92,18.78h1.275v1.373H92ZM10.834,50.912H22.073V56.9H.29v-5.49c10.892-9.983,14.889-11.917,14.889-16.222,0-2.683-1.622-4.118-3.94-4.118s-3.824,1.373-6.025,4.243L.7,31.383c2.9-4.243,5.736-6.551,11.008-6.551,6.083,0,10.139,3.868,10.139,9.8v.062c0,7.425-5.214,9.858-14.194,17.594L6.373,53.345Zm97.33-9.733c0,5.428-3.592,9.858-8.864,9.858s-8.922-4.555-8.922-9.983v-.062c0-5.428,3.65-9.858,8.864-9.858s8.922,4.555,8.922,10.045ZM99.358,24.707c-9.1,0-15.7,7.362-15.7,16.409v.062c0,8.984,6.547,16.284,15.642,16.284S115,50.1,115,41.054v-.062c-.058-8.984-6.547-16.284-15.642-16.284" transform="translate(0 0)" fill="#aea9af"/><path d="M67.473,36.3l1.532,1.473-1.473,1.532L66,37.773" transform="translate(-27.78 -13.686)" fill="#29367b"/><path d="M74.4,37.732l1.532,1.473,1.473-1.532L75.873,36.2" transform="translate(-31.316 -13.649)" fill="#b1aeb3"/><path d="M70.8,41.278l1.178,1.12L73.1,41.22,71.92,40.1" transform="translate(-29.796 -15.136)" fill="#d0da33"/><path d="M78.1,42.378l1.178,1.12L80.4,42.32,79.22,41.2" transform="translate(-32.869 -15.551)" fill="#71ba44"/><path d="M67.5,44.278l1.178,1.12L69.8,44.22,68.62,43.1" transform="translate(-28.408 -16.268)" fill="#d0da33"/><path d="M74.2,44.578l1.178,1.12L76.5,44.52,75.32,43.4" transform="translate(-31.227 -16.382)" fill="#27b8be"/><path d="M71.6,47.125l.825.766.825-.825-.825-.766" transform="translate(-30.129 -17.495)" fill="#71ba44"/><path d="M76.9,48.125l.825.825.825-.825-.825-.825" transform="translate(-32.359 -17.872)" fill="#58b75e"/><path d="M88.6,37.671l2.593-.471.471,2.593-2.593.471Z" transform="translate(-37.294 -14.024)" fill="#3088c8"/><path d="M82.8,39.654l2.062-.354.354,2.062-2.062.354Z" transform="translate(-34.847 -14.831)" fill="#1e3871"/><path d="M89.6,44.454l2.062-.354.354,2.062-2.062.354Z" transform="translate(-37.709 -16.643)" fill="#27b8be"/><path d="M84.8,45.095l1.591-.295.295,1.591-1.591.295Z" transform="translate(-35.685 -16.921)" fill="#d0da33"/><path d="M90.1,50.195l1.591-.295.295,1.591-1.591.295Z" transform="translate(-37.916 -18.847)" fill="#b1aeb3"/><path d="M80.7,46.195l1.591-.295.295,1.591-1.591.295Z" transform="translate(-33.96 -17.336)" fill="#27b8be"/><path d="M85.7,49.695l1.591-.295.295,1.591-1.591.295Z" transform="translate(-36.064 -18.658)" fill="#71ba44"/><path d="M82.2,50.136l1.12-.236.236,1.12-1.12.236Z" transform="translate(-34.587 -18.862)" fill="#b1aeb3"/><path d="M85.9,54.036l1.12-.236.236,1.12-1.12.236Z" transform="translate(-36.144 -20.337)" fill="#58b75e"/><path d="M100.82,52.3,99.7,54.657l2.357,1.12,1.12-2.357" transform="translate(-41.969 -19.704)" fill="#29367b"/><path d="M95.284,50.5,94.4,52.386l1.886.884.884-1.886" transform="translate(-39.732 -19.047)" fill="#27b8be"/><path d="M97.884,58.4,97,60.286l1.886.884.884-1.886" transform="translate(-40.827 -22.027)" fill="#71ba44"/><path d="M93.807,56,93.1,57.473l1.473.707.707-1.473M94.573,60.3l-.707,1.473,1.473.707.707-1.473" transform="translate(-39.187 -20.988)" fill="#d0da33"/><path d="M89.807,54.5,89.1,55.973l1.473.707.707-1.473" transform="translate(-37.497 -20.575)" fill="#3088c8"/><path d="M91.707,60.3,91,61.773l1.473.707.707-1.473" transform="translate(-38.297 -22.765)" fill="#b1aeb3"/><path d="M88.871,58.5,88.4,59.561l1.061.471.471-1.061" transform="translate(-37.197 -22.107)" fill="#71ba44"/><path d="M89,64.961l.471-1.061,1.061.471-.471,1.061Z" transform="translate(-37.45 -24.148)" fill="#27b8be"/><path d="M102.1,71.6l-2.3,1.237,1.237,2.3,2.3-1.237" transform="translate(-42.012 -26.972)" fill="#3088c8"/><path d="M97.9,66.7l-1.827,1,1,1.827,1.827-1m-2.475,2.887-1.827,1,1,1.827,1.827-1" transform="translate(-39.83 -24.949)" fill="#27b8be"/><path d="M94.714,70.3l-1.414.766.766,1.414,1.414-.766" transform="translate(-39.265 -26.54)" fill="#29367b"/><path d="M91.414,76.9,90,77.725l.766,1.414,1.414-.766" transform="translate(-37.876 -29.029)" fill="#58b75e"/><path d="M92.314,66.7l-1.414.766.766,1.414,1.414-.766" transform="translate(-38.255 -25.181)" fill="#1e3871"/><path d="M90.514,72.6l-1.414.766.766,1.414,1.414-.766" transform="translate(-37.497 -27.408)" fill="#d0da33"/><path d="M89.4,69.4l-1,.53.53,1,1-.53" transform="translate(-37.197 -26.226)" fill="#b1aeb3"/><path d="M86.8,74.1l-1,.53.53,1,1-.53" transform="translate(-36.103 -28.002)" fill="#27b8be"/><path d="M89.3,90.393l.295-2.593,2.593.295-.295,2.593Z" transform="translate(-37.587 -32.871)" fill="#71ba44"/><path d="M90.2,84.062,90.436,82l2.062.236L92.262,84.3Z" transform="translate(-37.961 -30.488)" fill="#1e3871"/><path d="M83.5,89.062,83.795,87l2.062.236L85.621,89.3Z" transform="translate(-35.142 -32.542)" fill="#27b8be"/><path d="M85.4,83.95l.177-1.65,1.65.177-.177,1.65Z" transform="translate(-35.937 -30.612)" fill="#71ba44"/><path d="M78.8,84.246l.177-1.65,1.65.177-.177,1.65Zm3.948-4.6L82.925,78l1.65.177-.177,1.65Z" transform="translate(-33.188 -28.845)" fill="#b1aeb3"/><path d="M80.6,83.35l.177-1.65,1.65.177-.177,1.65Z" transform="translate(-33.917 -30.365)" fill="#71ba44"/><path d="M80.287,79.62l.118-1.12,1.12.118-.118,1.12ZM77.4,80.975l.118-1.12,1.12.118-.118,1.12Z" transform="translate(-32.587 -29.617)" fill="#b1aeb3"/><path d="M74.112,95.268,72.168,93.5,70.4,95.444l1.944,1.768" transform="translate(-29.637 -35.212)" fill="#d0da33"/><path d="M73.512,33.068,71.568,31.3,69.8,33.244l1.944,1.768" transform="translate(-29.384 -11.788)" fill="#71ba44"/><path d="M78.046,90.614,76.514,89.2,75.1,90.732l1.532,1.414" transform="translate(-31.61 -33.446)" fill="#27b8be"/><path d="M69.705,90.814,68.173,89.4,66.7,90.932l1.532,1.414" transform="translate(-28.075 -33.528)" fill="#71ba44"/><path d="M73.7,87.72,72.52,86.6,71.4,87.778l1.178,1.12" transform="translate(-30.049 -32.378)" fill="#3088c8"/><path d="M66.4,85.734l-1.178-1.12L64.1,85.793l1.178,1.12M72.29,84.32,71.112,83.2l-1.12,1.178,1.178,1.12" transform="translate(-27.012 -30.981)" fill="#d0da33"/><path d="M70.2,84.42,69.02,83.3,67.9,84.478l1.178,1.12" transform="translate(-28.576 -31.022)" fill="#b1aeb3"/><path d="M73.291,82.366l-.825-.766-.766.825.825.766" transform="translate(-30.171 -30.324)" fill="#1e3871"/><path d="M67.95,81.366l-.825-.766-.825.825.825.766" transform="translate(-27.899 -29.913)" fill="#b1aeb3"/><path d="M52.4,88.93l2.593-.53.53,2.593-2.593.53Z" transform="translate(-22.057 -33.117)" fill="#3088c8"/><path d="M59.1,87.812l2.062-.412.412,2.062-2.062.412Z" transform="translate(-24.873 -32.707)" fill="#27b8be"/><path d="M52.3,83.012l2.062-.412.412,2.062-2.062.412Z" transform="translate(-22.011 -30.735)" fill="#71ba44"/><path d="M58,83.095l1.591-.295.295,1.591-1.591.295Z" transform="translate(-24.407 -30.817)" fill="#d0da33"/><path d="M62.1,81.995l1.591-.295.295,1.591-1.591.295Z" transform="translate(-26.133 -30.365)" fill="#29367b"/><path d="M57.1,78.495l1.591-.295.295,1.591-1.591.295Z" transform="translate(-24.029 -29.536)" fill="#3088c8"/><path d="M61.5,78.736l1.12-.236.236,1.12-1.12.236Z" transform="translate(-25.877 -29.673)" fill="#71ba44"/><path d="M57.8,74.836l1.12-.236.236,1.12-1.12.236Z" transform="translate(-24.321 -28.199)" fill="#b1aeb3"/><path d="M42.716,76.318l1.061-2.357L41.361,72.9,40.3,75.257" transform="translate(-16.965 -27.467)" fill="#27b8be"/><path d="M48.786,78.569l.884-1.886L47.784,75.8,46.9,77.686" transform="translate(-19.74 -28.59)" fill="#d0da33"/><path d="M46.086,70.669l.884-1.886L45.084,67.9,44.2,69.786" transform="translate(-18.604 -25.61)" fill="#3088c8"/><path d="M49.1,72.773l.707-1.473,1.473.707-.707,1.473Z" transform="translate(-20.663 -26.918)" fill="#27b8be"/><path d="M53.973,79.68l.707-1.473L53.207,77.5,52.5,78.973" transform="translate(-22.094 -29.258)" fill="#b1aeb3"/><path d="M47.7,65.473,48.407,64l1.473.707-.707,1.473Z" transform="translate(-20.074 -24.162)" fill="#29367b"/><path d="M53.1,74.173l.707-1.473,1.473.707-.707,1.473Z" transform="translate(-22.347 -27.446)" fill="#58b75e"/><path d="M51.1,68.473,51.807,67l1.473.707-.707,1.473Z" transform="translate(-21.505 -25.294)" fill="#d0da33"/><path d="M55.861,71.232l.471-1.061L55.271,69.7,54.8,70.761" transform="translate(-23.059 -26.34)" fill="#1e3871"/><path d="M55.161,65.832l.471-1.061L54.571,64.3,54.1,65.361" transform="translate(-22.765 -24.299)" fill="#71ba44"/><path d="M41,56.994l2.3-1.3L42,53.4l-2.3,1.3" transform="translate(-16.712 -20.114)" fill="#27b8be"/><path d="M44.761,62.287l1.827-1.061L45.527,59.4,43.7,60.461" transform="translate(-18.394 -22.4)" fill="#71ba44"/><path d="M47.161,54.287l1.827-1.061L47.927,51.4,46.1,52.461" transform="translate(-19.404 -19.383)" fill="#1e3871"/><path d="M49.425,59.139l1.414-.825L50.014,56.9l-1.414.825" transform="translate(-20.453 -21.479)" fill="#3088c8"/><path d="M52.525,52.439l1.414-.825L53.114,50.2l-1.414.825" transform="translate(-21.758 -18.95)" fill="#71ba44"/><path d="M51.825,62.639l1.414-.825L52.414,60.4,51,61.225" transform="translate(-21.463 -22.8)" fill="#27b8be"/><path d="M53.525,56.739l1.414-.825L54.114,54.5l-1.414.825" transform="translate(-22.179 -20.573)" fill="#d0da33"/><path d="M55.189,60.391l1-.589-.589-1-1,.589" transform="translate(-22.975 -22.219)" fill="#b1aeb3"/><path d="M55.225,49.1l1-.589-.589-1-1,.589M51.1,40.793l.295-2.593,2.593.295-.236,2.534L51.1,40.793Z" transform="translate(-21.519 -14.19)" fill="#71ba44"/><path d="M51.3,47.062,51.536,45l2.121.236L53.421,47.3Z" transform="translate(-21.59 -16.986)" fill="#b1aeb3"/><path d="M57.9,41.962l.236-2.062,2.121.236L60.021,42.2Z" transform="translate(-24.368 -15.06)" fill="#27b8be"/><path d="M57,47.05l.177-1.65,1.65.177-.177,1.65Z" transform="translate(-23.986 -17.149)" fill="#d0da33"/><path d="M63.5,43.45l.177-1.65,1.65.177-.177,1.65L63.5,43.45Z" transform="translate(-26.722 -15.789)" fill="#3088c8"/><path d="M56.9,51.25l.177-1.65,1.65.236-.177,1.65Z" transform="translate(-23.944 -18.734)" fill="#27b8be"/><path d="M61.7,47.55l.177-1.65,1.65.177-.177,1.65Z" transform="translate(-25.964 -17.338)" fill="#71ba44"/><path d="M61.1,51.32l.118-1.12,1.12.118-.118,1.12Z" transform="translate(-25.708 -18.979)" fill="#1e3871"/><path d="M65.9,48.92l.118-1.12,1.12.118-.118,1.12Z" transform="translate(-27.728 -18.072)" fill="#b1aeb3"/><path d="M75.234,61.258a6.515,6.515,0,0,0-5.244-.295,10.57,10.57,0,0,0-2.475,1.473,25.157,25.157,0,0,1-.118-6.658c1,.648.707,2.357.53,2.828a2.929,2.929,0,0,0,.354-3.477,1.793,1.793,0,0,1,.471.471,2.888,2.888,0,0,1,.53,2.3,2.907,2.907,0,0,0-.766-3.594c-.059-.059.177,0,.236.059a2.437,2.437,0,0,1,1.532,2.3,2.182,2.182,0,0,0-.943-2.71,1.98,1.98,0,0,0-.825-.295,2.174,2.174,0,0,1,1.591.295c.412.295.53.648.53.53a1.889,1.889,0,0,0-2.593-1.414,1.287,1.287,0,0,1,1.237-.589,1.11,1.11,0,0,1,.471.118,1.418,1.418,0,0,0-2-.295,2.563,2.563,0,0,0-.354.412,4.01,4.01,0,0,1-.471-1.414,6.908,6.908,0,0,1-.53,1.414,1.432,1.432,0,0,0-1.944-.471,2.563,2.563,0,0,0-.412.354,1.382,1.382,0,0,1,1.709.471,1.889,1.889,0,0,0-2.593,1.414,2.563,2.563,0,0,1,.354-.412,2.682,2.682,0,0,1,1.768-.471,2.284,2.284,0,0,0-1.768,1.414c-.295.766,0,1.827,0,1.532a2.4,2.4,0,0,1,1.709-2.3,2.907,2.907,0,0,0-.766,3.594,2.921,2.921,0,0,1,1-2.769,3.135,3.135,0,0,0,.354,3.477c-.236-.471-.471-2.239.53-2.828a25.158,25.158,0,0,1-.118,6.658,7.531,7.531,0,0,0-5.067-1.886A6.818,6.818,0,0,0,58.5,61.2v.059c2.887-.943,5.362.177,7.719,2.121A28.8,28.8,0,0,1,63.391,65.8a.722.722,0,0,0-.943-.118.658.658,0,0,0-.059.943c1,1,2.593-1,4.478-2.652,1.827,1.591,3.477,3.712,4.478,2.652a.6.6,0,0,0,.118-.53.589.589,0,0,0-.766-.471.95.95,0,0,0-.412.236,22.29,22.29,0,0,1-2.828-2.416c2.416-1.944,4.891-3.005,7.778-2.18" transform="translate(-24.705 -18.837)" fill="#727a82"/></g></svg>