<?xml version="1.0" encoding="utf-8"?>
<!-- Generator: Adobe Illustrator 24.1.2, SVG Export Plug-In . SVG Version: 6.00 Build 0)  -->
<svg version="1.1" id="Layer_1" xmlns="http://www.w3.org/2000/svg" xmlns:xlink="http://www.w3.org/1999/xlink" x="0px" y="0px"
	 viewBox="0 0 165.7 36" style="enable-background:new 0 0 165.7 36;" xml:space="preserve">
<style type="text/css">
	.st0{opacity:0.7;}
	.st1{clip-path:url(#SVGID_2_);}
	.st2{clip-path:url(#SVGID_4_);fill:#FFFFFF;}
	.st3{clip-path:url(#SVGID_6_);fill:#FFFFFF;}
	.st4{clip-path:url(#SVGID_8_);fill:#FFFFFF;}
	.st5{clip-path:url(#SVGID_10_);fill:#FFFFFF;}
	.st6{clip-path:url(#SVGID_12_);fill:#FFFFFF;}
	.st7{clip-path:url(#SVGID_14_);fill:#FFFFFF;}
	.st8{clip-path:url(#SVGID_16_);fill:#FFFFFF;}
	.st9{clip-path:url(#SVGID_18_);fill:#FFFFFF;}
	.st10{clip-path:url(#SVGID_20_);fill:#FFFFFF;}
	.st11{clip-path:url(#SVGID_22_);fill:#FFFFFF;}
	.st12{fill:#FFFFFF;}
</style>
<desc>Created with Sketch.</desc>
<g id="Page-1" class="st0">
	<g id="Login" transform="translate(-280.000000, -949.000000)">
	</g>
</g>
<g>
	<g>
		<g>
			<g>
				<defs>
					<rect id="SVGID_1_" x="130.2" y="0.6" width="35.4" height="35.5"/>
				</defs>
				<clipPath id="SVGID_2_">
					<use xlink:href="#SVGID_1_"  style="overflow:visible;"/>
				</clipPath>
				<g class="st1">
					<g>
						<g>
							<defs>
								<rect id="SVGID_3_" x="130.2" y="0.6" width="35.4" height="35.5"/>
							</defs>
							<clipPath id="SVGID_4_">
								<use xlink:href="#SVGID_3_"  style="overflow:visible;"/>
							</clipPath>
							<path class="st2" d="M152.8,33.1c-0.5-0.5-1.2-1.2-1.6-1.6c-0.4-0.4-1.1-1.1-1.6-1.6l-1-1l-1.6-1.6c-0.4-0.4-1.1-1.1-1.6-1.6
								l-1-1c-0.5-0.5-1.2-1.2-1.6-1.6c-0.4-0.4-1.1-1.1-1.6-1.6l-1-1c-0.5-0.5-1.2-1.2-1.6-1.6c-0.4-0.4-1.1-1.1-1.6-1.6l-1-1
								c-0.5-0.5-1.2-1.2-1.6-1.6c-0.4-0.4-1.1-1.1-1.5-1.5s-0.8-0.3-0.8,0.4v3c0,0.6,0.1,1.3,0.2,1.4c0.1,0.1,0.6,0.6,1,1l1,1
								c0.5,0.4,1.2,1.2,1.6,1.6c0.4,0.4,1.1,1.1,1.6,1.6l1,1c0.5,0.5,1.2,1.2,1.6,1.6c0.4,0.4,1.1,1.1,1.6,1.6l1,1
								c0.5,0.5,1.2,1.2,1.6,1.6c0.4,0.4,1.1,1.1,1.6,1.6l1,1c0.5,0.5,0.9,0.9,1,1s0.7,0.2,1.4,0.2h3
								C153,33.9,153.2,33.5,152.8,33.1"/>
						</g>
					</g>
					<g>
						<g>
							<defs>
								<rect id="SVGID_5_" x="130.2" y="0.6" width="35.4" height="35.5"/>
							</defs>
							<clipPath id="SVGID_6_">
								<use xlink:href="#SVGID_5_"  style="overflow:visible;"/>
							</clipPath>
							<path class="st3" d="M156.9,29c-0.5-0.5-1.2-1.2-1.6-1.6c-0.4-0.4-1.1-1.1-1.6-1.6l-1-1c-0.5-0.5-1.2-1.2-1.6-1.6
								c-0.4-0.4-1.1-1.1-1.6-1.6l-1-1c-0.5-0.5-1.2-1.2-1.6-1.6c-0.4-0.4-1.1-1.1-1.6-1.6l-1-1c-0.5-0.5-1.2-1.2-1.6-1.6
								c-0.4-0.4-1.1-1.1-1.6-1.6l-1-1c-0.5-0.5-1.2-1.2-1.6-1.6c-0.4-0.4-1.1-1.1-1.6-1.6l-4.1-4.2c-0.5-0.5-0.8-0.3-0.8,0.3v3
								c0,0.6,0.4,1.5,0.8,2l1.4,1.4c0.5,0.5,1.2,1.2,1.6,1.6c0.4,0.4,1.1,1.1,1.6,1.6l1,1c0.5,0.5,1.2,1.2,1.6,1.6l1.6,1.6l1,1
								c0.5,0.5,1.2,1.2,1.6,1.6c0.4,0.4,1.1,1.1,1.6,1.6l1,1c0.5,0.5,1.2,1.2,1.6,1.6c0.4,0.4,1.1,1.1,1.6,1.6l1,1
								c0.5,0.5,1.2,1.2,1.6,1.6c0.4,0.4,1.1,1.1,1.6,1.6l1.4,1.5c0.5,0.5,1.4,0.8,2,0.8h3c0.6,0,0.8-0.4,0.3-0.8L156.9,29z"/>
						</g>
					</g>
					<g>
						<g>
							<defs>
								<rect id="SVGID_7_" x="130.2" y="0.6" width="35.4" height="35.5"/>
							</defs>
							<clipPath id="SVGID_8_">
								<use xlink:href="#SVGID_7_"  style="overflow:visible;"/>
							</clipPath>
							<path class="st4" d="M132.3,32.7c0,0.6,0.5,1.2,1.2,1.2h2.4c0.6,0,0.8-0.4,0.4-0.8l-1.6-1.5c-0.4-0.4-1.1-1.1-1.5-1.5
								s-0.8-0.3-0.8,0.4L132.3,32.7L132.3,32.7z"/>
						</g>
					</g>
					<g>
						<g>
							<defs>
								<rect id="SVGID_9_" x="130.2" y="0.6" width="35.4" height="35.5"/>
							</defs>
							<clipPath id="SVGID_10_">
								<use xlink:href="#SVGID_9_"  style="overflow:visible;"/>
							</clipPath>
							<path class="st5" d="M155.2,24.4c0.5,0.5,1.2,0.5,1.7,0l5.6-5.6c0.5-0.5,0.8-1.4,0.8-2v-3c0-0.6-0.4-0.8-0.8-0.3l-8.3,8.3
								c-0.5,0.5-0.5,1.2,0,1.7L155.2,24.4z"/>
						</g>
					</g>
					<g>
						<g>
							<defs>
								<rect id="SVGID_11_" x="130.2" y="0.6" width="35.4" height="35.5"/>
							</defs>
							<clipPath id="SVGID_12_">
								<use xlink:href="#SVGID_11_"  style="overflow:visible;"/>
							</clipPath>
							<path class="st6" d="M132.3,25.1c0,0.6,0.1,1.3,0.2,1.4c0.1,0.1,0.6,0.6,1,1l1,1c0.5,0.5,1.2,1.2,1.6,1.6
								c0.4,0.4,1.1,1.1,1.6,1.6l1,1c0.5,0.5,0.9,0.9,1,1s0.7,0.2,1.4,0.2h3c0.6,0,0.8-0.4,0.4-0.8c-0.5-0.5-1.1-1.2-1.6-1.6
								c-0.4-0.4-1.1-1.1-1.6-1.6l-1-1c-0.5-0.5-1.2-1.2-1.6-1.6c-0.4-0.4-1.1-1.1-1.6-1.6l-1-1c-0.5-0.5-1.2-1.2-1.6-1.6
								c-0.4-0.4-1.1-1.1-1.5-1.5s-0.8-0.3-0.8,0.4v3.1H132.3z"/>
						</g>
					</g>
					<g>
						<g>
							<defs>
								<rect id="SVGID_13_" x="130.2" y="0.6" width="35.4" height="35.5"/>
							</defs>
							<clipPath id="SVGID_14_">
								<use xlink:href="#SVGID_13_"  style="overflow:visible;"/>
							</clipPath>
							<path class="st7" d="M158.4,25.8c-0.5,0.5-0.5,1.2,0,1.7l4.1,4.1c0.5,0.5,0.8,0.3,0.8-0.3v-9.2c0-0.6-0.4-0.8-0.8-0.3
								L158.4,25.8z"/>
						</g>
					</g>
					<g>
						<g>
							<defs>
								<rect id="SVGID_15_" x="130.2" y="0.6" width="35.4" height="35.5"/>
							</defs>
							<clipPath id="SVGID_16_">
								<use xlink:href="#SVGID_15_"  style="overflow:visible;"/>
							</clipPath>
							<path class="st8" d="M151.1,20.2c0.5,0.5,1.2,0.4,1.7,0l9.7-9.7c0.5-0.5,0.8-1.4,0.8-2v-3c0-0.6-0.4-0.8-0.8-0.3l-12.4,12.4
								c-0.5,0.5-0.5,1.2,0,1.7L151.1,20.2z"/>
						</g>
					</g>
					<g>
						<g>
							<defs>
								<rect id="SVGID_17_" x="130.2" y="0.6" width="35.4" height="35.5"/>
							</defs>
							<clipPath id="SVGID_18_">
								<use xlink:href="#SVGID_17_"  style="overflow:visible;"/>
							</clipPath>
							<path class="st9" d="M142.8,12c0.5,0.5,1.2,0.5,1.7,0l8.3-8.2c0.5-0.5,0.3-0.8-0.3-0.8h-3c-0.6,0-1.5,0.4-2,0.8l-5.6,5.6
								c-0.5,0.5-0.5,1.2,0,1.7L142.8,12z"/>
						</g>
					</g>
					<g>
						<g>
							<defs>
								<rect id="SVGID_19_" x="130.2" y="0.6" width="35.4" height="35.5"/>
							</defs>
							<clipPath id="SVGID_20_">
								<use xlink:href="#SVGID_19_"  style="overflow:visible;"/>
							</clipPath>
							<path class="st10" d="M138.7,7.8c0.5,0.5,1.2,0.5,1.7,0l4.1-4.1c0.5-0.5,0.3-0.8-0.3-0.8H135c-0.6,0-0.8,0.4-0.3,0.8
								L138.7,7.8z"/>
						</g>
					</g>
					<g>
						<g>
							<defs>
								<rect id="SVGID_21_" x="130.2" y="0.6" width="35.4" height="35.5"/>
							</defs>
							<clipPath id="SVGID_22_">
								<use xlink:href="#SVGID_21_"  style="overflow:visible;"/>
							</clipPath>
							<path class="st11" d="M147,16.1c0.5,0.5,1.2,0.5,1.7,0l12.4-12.4c0.5-0.5,0.3-0.8-0.3-0.8h-3c-0.6,0-1.5,0.4-2,0.8l-9.7,9.7
								c-0.5,0.5-0.5,1.2,0,1.7L147,16.1z"/>
						</g>
					</g>
				</g>
			</g>
		</g>
	</g>
</g>
<path id="XMLID_12_" class="st12" d="M45.6,14.6l0.1,0.7h-0.6c-1.2,0-2-0.7-2.2-1.8h-3.3c-0.2,0-1.1,0.1-1.1,1.5l0,0
	c0,1.6,0.6,2.4,2.1,2.4c0.8,0,1.6-0.1,2.2-0.2l0.7,0.6c-0.8,0.2-2,0.3-2.9,0.3c-1.8,0-2.7-1-2.7-2.9v-0.1c0-1.9,1.2-2.3,1.6-2.4h3.3
	c-0.3-1.5-1.3-2.8-2.6-2.8l0,0c-0.6,0-1.2,0.1-1.7,0.4l0.4-0.8c0.5-0.2,1-0.3,1.4-0.3c1.8,0,3,1.5,3.3,4c0.1,1.4,1.3,1.3,1.5,1.3
	L45.6,14.6L45.6,14.6z M41.3,14.7h-0.7v1.4h0.7V14.7z"/>
<path id="XMLID_15_" class="st12" d="M45.5,14.6h2c-0.4-0.4-0.6-1-0.6-1.9c0-1.8,1-2.6,2.3-2.6c1.5,0,2.3,1.1,2.3,2.6
	c0,1.8-0.8,2.6-2.3,2.6h-3.6L45.5,14.6z M50.7,12.7c0-1.3-0.6-2-1.6-2c-0.9,0-1.6,0.6-1.6,2c0,1.3,0.6,1.9,1.5,1.9h0.1
	C50.3,14.6,50.7,14.1,50.7,12.7"/>
<polygon id="XMLID_18_" class="st12" points="52.9,15.3 52.9,6.4 53.6,6.3 53.6,15.3 "/>
<path id="XMLID_19_" class="st12" d="M63.4,15.3c-0.7,0-1.4-0.2-2.1-0.6c-0.3,0.5-0.9,0.6-1.4,0.6h-0.1c-0.6,0-1.2-0.1-1.8-0.4v0.3
	c0,2-0.9,3-2.7,3h-0.2l-0.3-0.7c0.2,0,0.3,0,0.4,0c1.5,0,2.1-0.8,2.1-2.4V9.4L58,9.3v4.8c0.6,0.4,1.2,0.5,1.7,0.5h0.1
	c1,0,1.4-0.7,1.4-2V9.3l0.7-0.1v3.6c0,0.5-0.1,0.9-0.2,1.3c0.6,0.4,1.2,0.5,1.7,0.5h0.1L63.4,15.3L63.4,15.3z M61.2,16.8h0.7v1.4
	h-0.7V16.8z"/>
<path id="XMLID_22_" class="st12" d="M63.4,14.6c1.1,0,1.4-0.7,1.4-2V6.4l0.7-0.1v6.5c0,1.6-0.7,2.5-2.1,2.5
	C63.4,15.3,63.4,14.6,63.4,14.6z"/>
<polygon id="XMLID_23_" class="st12" points="67.2,15.3 67.2,6.4 67.9,6.3 67.9,15.3 "/>
<path id="XMLID_24_" class="st12" d="M72.4,17.5c0.2,0,0.3,0,0.4,0c1.5,0,2.1-0.8,2.1-2.4c-0.4,0.1-0.7,0.2-1,0.2
	c-1.2,0-2.1-0.8-2.1-2.6s1-2.6,2.2-2.6c0.7,0,1,0.1,1.6,0.3v4.7c0,2-0.9,3-2.7,3h-0.2L72.4,17.5z M75,11c-0.4-0.1-0.5-0.2-0.9-0.2
	c-0.8,0-1.6,0.6-1.6,1.9c0,1.4,0.7,1.9,1.5,1.9c0.4,0,0.6-0.1,1-0.2V11z"/>
<path id="XMLID_27_" class="st12" d="M80.1,16.9L80,18.2h-0.4l-0.2-3.6h1c-0.4-0.4-0.6-1-0.6-1.9c0-1.8,1-2.6,2.3-2.6
	c1.6,0,2.3,1.1,2.3,2.6c0,0.6-0.1,1-0.2,1.5c0.6,0.4,1.2,0.5,1.7,0.5H86l0.1,0.7H86c-0.7,0-1.4-0.2-2.1-0.6
	c-0.4,0.4-0.9,0.6-1.7,0.6h-2L80.1,16.9z M83.6,12.7c0-1.3-0.7-2-1.6-2s-1.6,0.6-1.6,2c0,1.3,0.6,1.9,1.5,1.9H82
	C83.1,14.6,83.6,14.1,83.6,12.7"/>
<path id="XMLID_30_" class="st12" d="M87,14.6V6.9l0.7-0.1v6c1.4-3,3.4-3.8,4.2-3.8c1.4,0,2.5,1,2.5,3.2c0,1.1-0.3,1.9-0.7,2.4h1.9
	l0.1,0.7h-9.9l-0.1-0.7H87z M87.5,14.6h4.3c1.3,0,1.8-0.9,1.8-2.4c0-1.7-0.7-2.4-1.8-2.4C90.8,9.8,88.6,11.4,87.5,14.6 M91.4,6.4
	h0.7v1.4h-0.7V6.4z"/>
<path id="XMLID_34_" class="st12" d="M99.2,15.3c-0.7,0-1.4-0.2-2.1-0.6c-0.4,0.5-0.9,0.6-1.5,0.6l0,0l-0.1-0.7l0,0
	c1,0,1.4-0.7,1.4-2V9.3l0.7-0.1v3.6c0,0.5-0.1,0.9-0.2,1.3c0.6,0.4,1.2,0.5,1.7,0.5h0.1V15.3L99.2,15.3z M97,6.4h0.7v1.4H97V6.4z"/>
<path id="XMLID_37_" class="st12" d="M99.2,14.6c1.1,0,1.4-0.7,1.4-2V6.4l0.7-0.1v6.5c0,1.6-0.7,2.5-2.1,2.5V14.6z"/>
<polygon id="XMLID_38_" class="st12" points="102.9,15.3 102.9,6.4 103.6,6.3 103.6,15.3 "/>
<path id="XMLID_39_" class="st12" d="M108.5,16.9l-0.1,1.3H108l-0.2-3.6h1c-0.4-0.4-0.6-1-0.6-1.9c0-1.8,1-2.6,2.3-2.6
	c1.6,0,2.3,1.1,2.3,2.6c0,0.6-0.1,1-0.2,1.5c0.6,0.4,1.2,0.5,1.7,0.5h0.1c1,0,1.4-0.7,1.4-2V6.5l0.7-0.1v6.5c0,1.6-0.7,2.5-2,2.5
	l0,0c-0.7,0-1.4-0.2-2.1-0.6c-0.4,0.4-0.9,0.6-1.7,0.6h-2L108.5,16.9z M111.9,12.7c0-1.3-0.7-2-1.6-2s-1.6,0.6-1.6,2
	c0,1.3,0.6,1.9,1.5,1.9h0.1C111.5,14.6,111.9,14.1,111.9,12.7"/>
<path id="XMLID_42_" class="st12" d="M119.1,15.3c-0.6,0-1.3-0.2-1.3-1.8V6.3l0.7-0.1v7.2c0,1,0.4,1.1,0.8,1.1h1.1l0.1,0.7
	L119.1,15.3L119.1,15.3z"/>
<path id="XMLID_43_" class="st12" d="M120.3,14.6h1.6c-0.5-0.5-0.7-1.3-0.7-2.4c0-2.2,1.1-3.2,2.5-3.2c0.8,0,1.5,0.3,1.9,1.2
	l-0.4,0.4c-0.3-0.8-0.8-0.9-1.5-0.9c-1.1,0-1.8,0.7-1.8,2.4c0,1.5,0.6,2.4,1.8,2.4h2l0.1,0.7h-5.4L120.3,14.6z"/>
<polygon id="XMLID_44_" class="st12" points="10.5,24 8.3,30.9 7.5,30.9 5.7,25.3 3.8,30.9 3,30.9 0.8,24 1.6,24 3.4,29.8 5.3,24 
	6,24 7.9,29.8 9.7,24 "/>
<path id="XMLID_45_" class="st12" d="M15.3,28.4c0,2.2-1.3,2.7-2.5,2.7c-1.1,0-2.5-0.5-2.5-2.7s1.3-2.7,2.5-2.7
	C14,25.7,15.3,26.1,15.3,28.4 M14.6,28.4c0-1.4-0.5-2-1.7-2s-1.7,0.6-1.7,2s0.5,2,1.7,2C14.1,30.3,14.6,29.7,14.6,28.4"/>
<path id="XMLID_48_" class="st12" d="M16.9,26.7V31h-0.8v-4.8c0.3-0.1,1.3-0.5,2.5-0.5v0.7C18,26.4,17.4,26.6,16.9,26.7"/>
<rect id="XMLID_49_" x="19.4" y="23.8" class="st12" width="0.8" height="7.1"/>
<path id="XMLID_50_" class="st12" d="M23.6,25.7c0.5,0,0.9,0.1,1.3,0.2v-2.1h0.8v5.6c0,0.4-0.2,1.6-2.1,1.6c-0.9,0-2.3-0.4-2.3-2.7
	C21.2,26.1,22.5,25.7,23.6,25.7 M23.5,30.3c0.9,0,1.4-0.3,1.4-0.9v-2.8c-0.4-0.2-0.8-0.3-1.3-0.3c-1.1,0-1.6,0.6-1.6,1.9
	C21.9,30.1,22.8,30.3,23.5,30.3"/>
<path id="XMLID_53_" class="st12" d="M34.5,28.4c0,2.2-1.3,2.7-2.5,2.7c-1.1,0-2.4-0.5-2.4-2.7s1.3-2.7,2.4-2.7
	C33.2,25.7,34.5,26.1,34.5,28.4 M33.8,28.4c0-1.4-0.5-2-1.7-2s-1.7,0.6-1.7,2s0.5,2,1.7,2C33.3,30.3,33.8,29.7,33.8,28.4"/>
<path id="XMLID_56_" class="st12" d="M36.4,25.5v0.3h1.4v0.7h-1.4V31h-0.8v-4.5h-0.9v-0.7h0.9v-0.3c0-1.9,1.3-1.9,1.7-1.9
	c0.2,0,0.4,0,0.5,0.1v0.7c-0.1,0-0.2,0-0.4,0C37,24.3,36.4,24.3,36.4,25.5"/>
<path id="XMLID_57_" class="st12" d="M45.7,29.2c0,1.1-0.9,1.8-2.5,1.8c-0.9,0-1.6-0.2-2.1-0.5v-0.8c0.4,0.3,1.1,0.5,2,0.5
	c0.8,0,1.8-0.2,1.8-1.1c0-2-3.9-1-3.9-3.3c0-0.9,0.6-1.9,2.4-1.9c0.7,0,1.3,0.2,1.7,0.4v0.8c-0.4-0.2-1-0.4-1.7-0.4
	c-1.1,0-1.7,0.4-1.7,1.2C41.9,27.4,45.7,26.5,45.7,29.2"/>
<path id="XMLID_58_" class="st12" d="M50.6,25.8l-2.1,5.7C48,32.7,47.4,33,46.9,33c-0.2,0-0.4-0.1-0.5-0.1v-0.7
	c0.1,0,0.3,0.1,0.5,0.1c0.7,0,1.1-1.4,1.1-1.4l-1.9-5.1h0.8l1.5,4.1l1.5-4.1H50.6z"/>
<path id="XMLID_59_" class="st12" d="M54.4,29.6c0,0.9-0.7,1.4-1.9,1.4c-0.7,0-1.2-0.2-1.6-0.4v-0.8c0.5,0.3,1,0.5,1.5,0.5
	s1.2-0.1,1.2-0.7c0-1.4-2.8-0.6-2.8-2.4c0-0.7,0.5-1.5,1.9-1.5c0.5,0,1,0.2,1.3,0.3v0.7c-0.3-0.2-0.7-0.4-1.3-0.4
	c-0.5,0-1.2,0.1-1.2,0.8C51.6,28.2,54.4,27.6,54.4,29.6"/>
<path id="XMLID_60_" class="st12" d="M56.4,29.6c0,0.5,0.2,0.7,0.8,0.7c0.3,0,0.4-0.1,0.6-0.1v0.7C57.6,31,57.4,31,57.1,31
	c-0.4,0-1.4-0.1-1.4-1.5v-3.1h-0.9v-0.7h0.9v-1.5h0.8v1.5h1.3v0.7h-1.3L56.4,29.6L56.4,29.6z"/>
<path id="XMLID_61_" class="st12" d="M62.8,28.4c0,0.2,0,0.4,0,0.4H59c0.1,1,0.6,1.5,1.7,1.5c0.8,0,1.4-0.1,1.8-0.4v0.8
	c-0.5,0.2-1.1,0.4-1.9,0.4c-1.1,0-2.4-0.4-2.4-2.6c0-0.5-0.1-2.7,2.3-2.7C62.8,25.7,62.8,28.2,62.8,28.4 M62,28.1
	c0-0.3-0.1-1.8-1.5-1.8c-1,0-1.5,0.5-1.5,1.8H62z"/>
<path id="XMLID_64_" class="st12" d="M71.1,27.6V31h-0.8v-3.4c0-0.5-0.1-1.1-1.3-1.1c-0.6,0-1.1,0.1-1.4,0.3
	c0.1,0.3,0.2,0.5,0.2,0.9V31H67v-3.4c0-0.5-0.1-1.1-1.3-1.1c-0.5,0-0.9,0.1-1.2,0.2V31h-0.8v-4.8c0.3-0.1,1.1-0.5,2.1-0.5
	c0.6,0,1,0.2,1.4,0.4c0.4-0.2,1.1-0.4,1.9-0.4C70.3,25.7,71.1,26.4,71.1,27.6"/>
<path id="XMLID_65_" class="st12" d="M85,30.9h-1l-0.6-0.8c-0.5,0.5-1.1,0.8-2,0.8c-1.6,0-2.2-1.2-2.2-2c0-0.7,0.2-1.4,1.4-2.1
	c-0.3-0.4-0.7-0.9-0.7-1.4c0-0.9,0.7-1.6,1.6-1.6s1.6,0.7,1.6,1.5s-0.4,1.2-1.3,1.7l1.5,1.8c0.2-0.4,0.4-0.8,0.4-1h0.7
	c-0.1,0.5-0.3,1.1-0.6,1.6L85,30.9z M83,29.6l-1.8-2.2c-1.1,0.6-1.1,1.2-1.1,1.5c0,0.4,0.3,1.3,1.5,1.3C82.1,30.3,82.6,30,83,29.6
	 M80.7,25.5c0,0.3,0.3,0.7,0.7,1.1c1-0.5,1.1-0.8,1.1-1.1c0-0.5-0.4-0.8-0.9-0.8C81.1,24.7,80.7,25.1,80.7,25.5"/>
<path id="XMLID_69_" class="st12" d="M93.4,29.2c0,1.1-0.9,1.8-2.5,1.8c-0.9,0-1.6-0.2-2.1-0.5v-0.8c0.4,0.3,1.1,0.5,2,0.5
	c0.8,0,1.8-0.2,1.8-1.1c0-2-3.9-1-3.9-3.3c0-0.9,0.6-1.9,2.4-1.9c0.7,0,1.3,0.2,1.8,0.4v0.8c-0.4-0.2-1-0.4-1.7-0.4
	c-1.1,0-1.7,0.4-1.7,1.2C89.5,27.4,93.4,26.5,93.4,29.2"/>
<path id="XMLID_70_" class="st12" d="M99,28.4c0,2.2-1.3,2.7-2.5,2.7c-1.1,0-2.4-0.5-2.4-2.7s1.3-2.7,2.4-2.7S99,26.1,99,28.4
	 M98.2,28.4c0-1.4-0.5-2-1.7-2s-1.7,0.6-1.7,2s0.5,2,1.7,2C97.7,30.3,98.2,29.7,98.2,28.4"/>
<path id="XMLID_73_" class="st12" d="M100.8,25.5v0.3h1.4v0.7h-1.4V31H100v-4.5h-0.9v-0.7h0.9v-0.3c0-1.9,1.3-1.9,1.7-1.9
	c0.2,0,0.4,0,0.5,0.1v0.7c-0.1,0-0.2,0-0.4,0C101.4,24.3,100.8,24.3,100.8,25.5"/>
<path id="XMLID_74_" class="st12" d="M104.1,29.6c0,0.5,0.2,0.7,0.8,0.7c0.3,0,0.4-0.1,0.6-0.1v0.7c-0.2,0.1-0.4,0.1-0.7,0.1
	c-0.4,0-1.4-0.1-1.4-1.5v-3.1h-0.9v-0.7h0.9v-1.5h0.8v1.5h1.3v0.7h-1.3v3.2C104.2,29.6,104.1,29.6,104.1,29.6z"/>
<polygon id="XMLID_75_" class="st12" points="113.2,25.8 111.4,30.9 110.7,30.9 109.5,27.1 108.3,30.9 107.5,30.9 105.8,25.8 
	106.6,25.8 107.9,29.8 109.1,25.8 109.8,25.8 111,29.8 112.4,25.8 "/>
<path id="XMLID_76_" class="st12" d="M117.8,27.8v1.6c0,1.4-1.5,1.6-2.2,1.6s-2.2-0.2-2.2-1.7c0-1.7,2.3-1.7,2.7-1.7
	c0.5,0,0.8,0.1,0.8,0.1c0-1-0.6-1.3-1.5-1.3c-0.8,0-1.3,0.2-1.5,0.3V26c0.4-0.1,0.9-0.3,1.6-0.3C117,25.7,117.8,26.4,117.8,27.8
	 M117,28.4c0,0-0.3-0.1-0.9-0.1s-1.9,0.1-1.9,1c0,0.8,0.8,1,1.4,1s1.4-0.2,1.4-0.9V28.4z"/>
<path id="XMLID_79_" class="st12" d="M119.5,26.7V31h-0.8v-4.8c0.3-0.1,1.3-0.5,2.5-0.5v0.7C120.6,26.4,119.9,26.6,119.5,26.7"/>
<path id="XMLID_80_" class="st12" d="M126.2,28.4c0,0.2,0,0.4,0,0.4h-3.8c0.1,1,0.6,1.5,1.7,1.5c0.8,0,1.3-0.1,1.8-0.4v0.8
	c-0.5,0.2-1.1,0.4-1.9,0.4c-1.1,0-2.4-0.4-2.4-2.6c0-0.5-0.1-2.7,2.3-2.7C126.3,25.7,126.2,28.2,126.2,28.4 M125.4,28.1
	c0-0.3-0.1-1.8-1.5-1.8c-1,0-1.5,0.5-1.5,1.8H125.4z"/>
<path id="XMLID_1_" class="st12" d="M75.8,29.8c0,0.9-0.7,1.4-1.9,1.4c-0.7,0-1.2-0.2-1.6-0.4V30c0.5,0.3,1,0.5,1.5,0.5
	s1.2-0.1,1.2-0.7c0-1.4-2.8-0.6-2.8-2.4c0-0.7,0.5-1.5,1.9-1.5c0.5,0,1,0.2,1.3,0.3v0.7c-0.3-0.2-0.7-0.4-1.3-0.4
	c-0.5,0-1.2,0.1-1.2,0.8C73,28.4,75.8,27.8,75.8,29.8"/>
</svg>
